<?xml version="1.0" standalone="no"?>
<!DOCTYPE svg PUBLIC "-//W3C//DTD SVG 20010904//EN"
 "http://www.w3.org/TR/2001/REC-SVG-20010904/DTD/svg10.dtd">
<svg version="1.0" xmlns="http://www.w3.org/2000/svg"
 width="767.000000pt" height="409.000000pt" viewBox="0 0 767.000000 409.000000"
 preserveAspectRatio="xMidYMid meet">

<g transform="translate(0.000000,409.000000) scale(0.100000,-0.100000)"
fill="currentColor" stroke="none">
<path d="M1925 2971 c-81 -38 -48 22 -726 -1308 -77 -149 -139 -283 -139 -297
0 -73 50 -106 162 -106 97 0 182 24 402 116 289 120 477 159 654 134 182 -25
288 -63 458 -166 50 -30 112 -61 138 -69 104 -31 158 40 108 143 -49 99 -543
1035 -740 1402 -50 93 -78 126 -126 149 -54 27 -137 27 -191 2z m143 -138 c11
-10 86 -144 167 -298 81 -154 214 -406 295 -560 199 -378 269 -515 264 -515
-3 0 -26 20 -52 44 -169 157 -406 286 -622 337 -67 17 -272 16 -358 0 -121
-23 -268 -80 -371 -143 l-34 -21 26 44 c30 53 351 677 468 912 46 93 95 179
108 193 29 29 79 32 109 7z"/>
<path d="M3985 2667 c-3 -6 -4 -161 -3 -342 l3 -330 233 -2 232 -2 0 69 0 69
-152 3 -153 3 -3 273 -2 272 -75 0 c-52 0 -77 -4 -80 -13z"/>
<path d="M4746 2665 c-60 -17 -146 -74 -181 -121 -41 -53 -65 -133 -65 -213 0
-137 65 -243 188 -303 63 -31 73 -33 172 -33 95 0 110 3 158 28 78 41 126 89
158 159 26 56 29 74 29 158 -1 83 -4 102 -27 145 -32 62 -113 140 -175 167
-60 26 -189 33 -257 13z m215 -160 c100 -66 112 -246 22 -327 -29 -26 -88 -48
-130 -48 -213 1 -258 335 -54 401 43 14 121 2 162 -26z"/>
<path d="M3428 2577 c-64 -160 -218 -566 -218 -575 0 -12 147 -9 159 3 6 6 19
35 29 65 l19 55 138 0 138 0 22 -64 23 -64 78 2 c43 1 81 4 83 6 4 5 -68 195
-187 498 l-66 167 -90 0 -91 0 -37 -93z m171 -183 c23 -63 41 -122 41 -130 0
-11 -19 -14 -91 -14 -67 0 -90 3 -87 13 14 55 84 247 89 247 4 0 25 -52 48
-116z"/>
<path d="M5320 2329 l0 -342 53 7 c28 3 64 6 80 6 l27 0 0 130 0 130 145 0
145 0 0 -128 c0 -71 2 -131 4 -133 2 -2 38 -3 80 -1 l76 4 0 334 0 334 -80 0
-80 0 0 -135 0 -135 -145 0 -145 0 0 135 0 135 -80 0 -80 0 0 -341z"/>
<path d="M6137 2340 c-70 -182 -127 -335 -127 -340 0 -9 149 -3 160 7 2 2 14
30 26 61 l21 57 138 0 137 0 25 -67 c25 -67 26 -68 63 -68 20 0 58 3 83 6 l45
6 -23 57 c-13 31 -56 139 -95 241 -39 102 -88 227 -107 278 l-36 92 -92 0 -92
0 -126 -330z m268 37 l45 -127 -95 0 c-52 0 -95 3 -95 8 0 4 18 57 40 117 22
61 43 116 46 124 2 8 6 12 9 9 2 -2 25 -61 50 -131z"/>
<path d="M4274 1662 c-104 -49 -131 -174 -57 -263 51 -61 141 -76 220 -38 l43
21 0 69 0 69 -65 0 c-58 0 -65 -2 -65 -20 0 -17 7 -20 45 -20 45 0 45 0 45
-36 0 -31 -4 -37 -35 -50 -76 -32 -149 -1 -175 74 -13 37 -13 47 0 84 17 49
67 88 112 88 16 0 45 -7 65 -15 32 -14 39 -14 51 -1 12 12 11 16 -13 32 -40
26 -121 29 -171 6z"/>
<path d="M4728 1673 l-118 -4 0 -158 c0 -136 2 -160 16 -165 9 -3 65 -6 125
-6 102 0 109 1 109 20 0 19 -7 20 -100 20 l-100 0 0 55 0 55 85 0 c78 0 85 2
85 20 0 19 -7 20 -91 20 l-90 0 3 48 3 47 98 3 c96 3 97 3 97 27 0 14 -1 24
-2 23 -2 -1 -56 -4 -120 -5z"/>
<path d="M3430 1510 c-40 -88 -71 -162 -68 -165 12 -12 47 11 61 41 l17 34 88
0 88 0 13 -35 c9 -27 18 -35 36 -35 24 0 24 1 10 38 -7 20 -38 91 -68 157 -46
102 -57 120 -79 123 -23 3 -30 -9 -98 -158z m129 34 c17 -36 31 -70 31 -75 0
-5 -29 -9 -65 -9 -36 0 -65 4 -65 10 0 9 62 140 66 140 1 0 16 -30 33 -66z"/>
<path d="M3802 1508 c3 -155 4 -163 23 -163 17 0 20 8 23 58 l3 57 44 0 c42 0
47 -3 86 -55 30 -40 48 -55 66 -55 28 0 26 4 -25 67 l-34 42 42 40 c40 38 42
43 37 82 -10 72 -30 83 -158 87 l-110 4 3 -164z m200 105 c23 -21 23 -65 -1
-87 -11 -10 -44 -19 -85 -23 l-66 -6 0 67 0 66 67 0 c48 0 72 -5 85 -17z"/>
<path d="M4980 1504 l0 -165 23 3 c21 3 22 6 22 125 0 94 3 119 12 111 7 -5
52 -59 100 -119 65 -81 94 -109 110 -109 23 0 23 1 23 160 l0 160 -25 0 -24 0
-3 -120 -3 -120 -95 120 c-71 89 -101 120 -117 120 -23 0 -23 -1 -23 -166z"/>
<path d="M5370 1650 c0 -18 7 -20 55 -20 l55 0 0 -146 c0 -145 0 -145 23 -142
21 3 22 6 25 145 l3 142 52 3 c40 2 53 7 55 21 3 15 -8 17 -132 17 -129 0
-136 -1 -136 -20z"/>
<path d="M5740 1511 c0 -88 4 -162 9 -165 5 -4 16 -3 25 0 14 5 16 29 16 165
l0 159 -25 0 -25 0 0 -159z"/>
<path d="M5924 1654 c3 -9 6 -83 6 -166 0 -137 1 -149 18 -146 15 3 18 19 22
127 l5 123 95 -118 c104 -129 133 -148 144 -93 3 17 6 89 6 160 l0 129 -25 0
-24 0 -3 -122 -3 -123 -95 122 c-82 105 -99 122 -124 123 -22 0 -27 -4 -22
-16z"/>
<path d="M6441 1628 c-71 -163 -121 -281 -121 -284 0 -2 9 -4 20 -4 13 0 27
14 40 40 l20 40 84 0 84 0 19 -37 c12 -25 25 -38 38 -38 28 0 24 15 -52 181
-58 127 -68 144 -90 144 -18 0 -28 -9 -42 -42z m108 -160 c1 -5 -28 -8 -64 -8
-36 0 -65 4 -65 9 0 5 14 40 32 77 l32 68 32 -69 c18 -39 33 -73 33 -77z"/>
</g>
</svg>
